<?xml version="1.0" encoding="utf-8"?>
<!-- Generator: Adobe Illustrator 23.0.0, SVG Export Plug-In . SVG Version: 6.00 Build 0)  -->
<svg version="1.1" id="Layer_1" xmlns="http://www.w3.org/2000/svg" xmlns:xlink="http://www.w3.org/1999/xlink" x="0px" y="0px"
	 viewBox="0 0 236.75 62.11" style="enable-background:new 0 0 236.75 62.11;" xml:space="preserve">
<style type="text/css">
	.st0{fill:#0668B2;}
	.st1{fill:#9CA2A3;}
	.st2{fill:#0B8DC8;}
	.st3{fill:#FAA627;}
	.st4{fill:#FFFFFF;}
</style>
<g>
	<path class="st0" d="M87.38,30.17l-7.42-6.81c-0.52-0.47-0.84-1.1-0.84-1.83c0-1.42,1.22-2.58,2.72-2.58h8.22V15.4H77.5
		c-3.89,0-7.13,2.62-7.13,6.74c0,1.75,0.71,3.35,1.87,4.55l8.75,8.25c0,0,1.47,1.07,0.96,2.83c-0.51,1.76-2.74,1.76-3.58,1.76h-8
		v7.2h12.14c4.91,0,8.9-3.76,8.9-8.39v-0.06C91.54,34.79,89.67,32.3,87.38,30.17"/>
	<path class="st0" d="M136.42,30.17L129,23.36c-0.52-0.47-0.85-1.1-0.85-1.83c0-1.42,1.22-2.58,2.73-2.58h8.21V15.4h-12.55
		c-3.89,0-7.14,2.62-7.14,6.74c0,1.75,0.72,3.35,1.88,4.55l8.74,8.25c0,0,1.48,1.07,0.96,2.83c-0.51,1.76-2.75,1.76-3.59,1.76h-8
		v7.2h12.14c4.92,0,8.9-3.76,8.9-8.39v-0.06C140.57,34.79,138.71,32.3,136.42,30.17"/>
	<path class="st0" d="M117.71,37.61c0-3.75-2.1-7.38-6.31-8.82c3.18-0.98,4.84-3.32,4.84-6.6c0-2.2-1.04-4.05-2.68-5.26
		c-2.36-1.62-5.89-1.5-5.89-1.5l0-0.01H93.8V46.7h14.74c1.25-0.06,3.88-0.39,6.01-2.14C116.43,42.9,117.71,40.43,117.71,37.61
		 M101.29,19.01h3.33c0.5,0,3.98,0,4.27,3.39c0.2,2.43-1.45,3.94-4.12,3.94h-3.48V19.01z M105.29,39.51h-3.99v-8.33h3.83
		c0.51,0,4.39,0,4.67,3.85C110.01,37.79,107.95,39.51,105.29,39.51"/>
	<polygon class="st1" points="210.63,15.46 210.63,32.72 213.97,32.72 213.97,15.47 	"/>
	<polygon class="st1" points="205.87,23.08 202.7,23.08 202.7,20.48 205.87,20.48 205.87,15.47 209.26,15.47 209.26,32.71 
		205.87,32.71 	"/>
	<path class="st1" d="M204.09,28.79h-5.47c-2.11,0-3.8-0.45-3.8-2.13V15.8h9.23v2.36h-5.43v8.14h5.47V28.79z"/>
	<rect x="231.77" y="15.46" class="st1" width="4.01" height="17.4"/>
	<path class="st1" d="M217.17,15.78V26.6c0,1.7,1.71,2.15,3.84,2.15h7.45V15.78H217.17z M224.61,26.32h-3.6v-8.16h3.6V26.32z"/>
	<path class="st1" d="M153.7,19.27c0.56-0.69,1.24-1.04,2.02-1.04c0.85,0,1.53,0.36,2.06,1.07c0.52,0.71,0.78,1.51,0.78,2.38
		c0,0.87-0.27,1.66-0.79,2.35c-0.53,0.7-1.22,1.05-2.07,1.05c-0.83,0-1.52-0.36-2.04-1.07c-0.53-0.71-0.79-1.5-0.79-2.38
		C152.86,20.76,153.14,19.98,153.7,19.27 M151.19,17.36c-1.25,1.18-1.87,2.61-1.87,4.27c0,1.67,0.63,3.09,1.88,4.27
		c1.25,1.18,2.74,1.78,4.48,1.78c1.74,0,3.24-0.6,4.48-1.78c1.25-1.18,1.87-2.6,1.87-4.27c0-1.66-0.62-3.08-1.89-4.27
		c-1.25-1.18-2.75-1.77-4.49-1.77C153.92,15.59,152.42,16.18,151.19,17.36"/>
	<polygon class="st1" points="164.35,15.46 164.35,32.86 168.36,32.86 168.36,23.06 171.21,23.06 171.21,20.54 168.36,20.54 
		168.36,15.46 	"/>
	<polygon class="st1" points="186.08,15.46 186.08,32.86 190.09,32.86 190.09,23.06 192.95,23.06 192.95,20.54 190.09,20.54 
		190.09,15.46 	"/>
	<path class="st1" d="M179.37,20.59l-6.18,0v2.41h5.5c-1.12,2.25-3.45,3.72-6.17,3.86v2.5c4.08-0.14,7.5-1.64,9.56-5.13
		c1.79-3.04,1.54-8.46,1.54-8.46h-10.75v2.41l6.64,0C179.56,19,179.51,19.55,179.37,20.59"/>
</g>
<path class="st2" d="M61.05,35.58c0.74-7.43,0.55-9.13-3.28-14.39c-0.97-1.33-1.72-2.51-0.4-2.16c1.22,0.32,0.31-2.44,1.45-1.76
	C57.03,9.01,47.21,4.1,39.73,1.36c-1.77-0.38-3.55-0.78-5.32-1.17C33.42,0.19,32.04,0,31.06,0c-6.29,0.8-12.21,0.83-17.52,4.58
	c-1.58,1.18-3.14,3.33-4.9,4.91c-0.98,0.99-1.38,1.77-2.36,2.76C2.35,17.18,0.59,22.69,0.01,28.8C-0.17,41,3.92,50.47,15.33,56.79
	c1.23,0.68,9.53,4.64,13.89,5.19c5.17,0.65,12.11-1.35,14.08-2.34c1.57-1.19,3.24-1.09,4.42-2.47c0.98-0.99,3.27-2.5,3.87-3.69
	C54.34,48.95,61.84,40.9,61.05,35.58"/>
<path class="st3" d="M49.65,33.06c0.45-4.46,0.34-5.48-1.97-8.63c-0.58-0.79-1.02-1.51-0.23-1.3c0.73,0.19,0.95-0.77,0.86-1.05
	c-1.07-4.96-6.96-7.91-11.46-9.54c-1.06-0.24-2.12-0.48-3.19-0.71c-0.59,0-1.42-0.12-2.01-0.11c-3.78,0.48-7.32,0.49-10.51,2.74
	c-0.94,0.71-1.88,2-2.94,2.95c-0.59,0.59-0.82,1.07-1.41,1.66c-2.36,2.95-3.42,6.27-3.76,9.93c-0.1,7.32,2.36,13,9.2,16.79
	c0.73,0.41,5.71,2.79,8.34,3.12c3.1,0.39,7.26-0.81,8.44-1.41c0.94-0.7,1.95-0.65,2.65-1.48c0.59-0.59,1.97-1.5,2.32-2.21
	C45.63,41.08,50.13,36.25,49.65,33.06"/>
<path class="st4" d="M18.64,24.98c3.31-6.65,11.39-9.36,18.05-6.04c6.66,3.3,9.36,11.39,6.06,18.04c-3.31,6.65-11.4,9.36-18.05,6.05
	C18.04,39.71,15.33,31.63,18.64,24.98"/>
<g>
	<path class="st1" d="M155.99,37.76c-0.37,0.8-0.83,1.46-1.37,1.97c-0.72,0.67-1.49,1.18-2.31,1.52c-0.82,0.34-1.5,0.57-2.05,0.69
		l-1.12-1.36c0.56-0.13,1.13-0.3,1.71-0.52c0.57-0.22,1.13-0.5,1.66-0.84c0.03-0.02,0.07-0.04,0.12-0.07s0.09-0.07,0.13-0.1
		c-0.37,0.04-0.78,0.07-1.23,0.12c-0.45,0.04-0.74,0.06-0.88,0.06h-0.92V37.8h1.83c0.31,0,0.69-0.02,1.17-0.05s0.87-0.06,1.19-0.09
		c0.05-0.1,0.09-0.2,0.13-0.3c0.04-0.1,0.08-0.19,0.1-0.29h-4.15V35.4h6.53C156.55,36.18,156.36,36.97,155.99,37.76z M151.33,46.73
		v-4.76h9.1v4.76H151.33z M158.36,43.69h-4.97V45h4.97V43.69z M158.41,41.5v-1.96h-2.29v-1.75h2.29v-3.02h2.07v6.73H158.41z"/>
	<path class="st1" d="M170.95,43.43v3.43h-2.07v-3.43h-2.44v3.29h-2.07v-3.29h-2.91v-1.75h12.33v1.75H170.95z M162.43,41v-1.75h1.76
		l-0.21-2.03h2.09l0.17,2.03h2.75l0.17-2.03h2.09l-0.21,2.03h1.78V41H162.43z M162.71,36.93v-1.75h9.83v1.75H162.71z"/>
	<path class="st1" d="M180.62,44.3c-0.42,0.05-0.83,0.1-1.23,0.12c-0.78,0.05-1.7,0.07-2.76,0.09s-1.63,0.02-1.71,0.02v-8.66h5.88
		v1.75h-3.81v1.59h3.68v1.75h-3.68v1.81c0.14,0,0.44-0.01,0.9-0.02s0.98-0.03,1.54-0.06c0.42-0.03,0.83-0.06,1.24-0.11
		c0.41-0.05,0.8-0.09,1.17-0.14v1.71C181.44,44.21,181.03,44.25,180.62,44.3z M183.1,46.86v-5.9h-1.8v-1.75h1.8v-4.43h2.07v12.09
		H183.1z"/>
	<path class="st1" d="M193.02,43.5c-0.65,0.85-1.52,1.28-2.62,1.28c-1.09,0-1.96-0.42-2.61-1.27s-0.98-1.96-0.98-3.34
		c0-1.41,0.33-2.53,0.98-3.37c0.65-0.84,1.52-1.26,2.61-1.26c1.1,0,1.97,0.42,2.62,1.27c0.65,0.85,0.97,1.97,0.97,3.35
		C193.99,41.54,193.66,42.65,193.02,43.5z M191.55,38.23c-0.27-0.58-0.65-0.88-1.14-0.88c-0.48,0-0.87,0.29-1.15,0.88
		c-0.29,0.58-0.43,1.23-0.43,1.92c0,0.71,0.14,1.35,0.43,1.94c0.29,0.58,0.67,0.88,1.15,0.88c0.49,0,0.87-0.29,1.14-0.87
		c0.27-0.58,0.41-1.23,0.41-1.94C191.96,39.46,191.83,38.82,191.55,38.23z M197.37,41.29v5.58h-2.07V34.77h2.07v4.64h1.65v1.88
		H197.37z"/>
	<path class="st1" d="M198.91,45.64v-1.75h12.33v1.75H198.91z M200.48,42.66v-6.94h9.23v1.75h-7.12v0.84h7.05v1.75h-7.05v0.83h7.32
		v1.75H200.48z"/>
	<path class="st1" d="M211.7,38.19v-1.58h7.84v1.58H211.7z M218.19,41.87c-0.67,0.39-1.53,0.58-2.57,0.58
		c-0.93,0-1.75-0.2-2.48-0.59c-0.73-0.39-1.09-0.88-1.09-1.46c0-0.6,0.37-1.08,1.1-1.44c0.73-0.36,1.57-0.54,2.51-0.54
		c1.01,0,1.85,0.18,2.52,0.53c0.68,0.35,1.01,0.83,1.01,1.43C219.19,40.99,218.86,41.48,218.19,41.87z M220.21,46.86V44.6h-7.16
		v-1.69h9.29v3.94H220.21z M213.45,36.19v-1.54h4.31v1.54H213.45z M216.6,39.97c-0.29-0.09-0.61-0.14-0.96-0.14
		c-0.33,0-0.65,0.05-0.96,0.14s-0.46,0.24-0.46,0.43c0,0.2,0.15,0.35,0.45,0.44c0.3,0.1,0.62,0.14,0.96,0.14
		c0.36,0,0.68-0.05,0.96-0.15c0.28-0.1,0.42-0.25,0.42-0.45C217.03,40.2,216.89,40.06,216.6,39.97z M222.34,39.75v2.75h-2.07v-7.72
		h2.07v3.14h1.58v1.84H222.34z"/>
	<path class="st1" d="M230.95,41.06c-0.87,0.06-1.55,0.09-2.03,0.1v1.66h-2.07v-1.63h-2.55v-1.71h4.12c0.61,0,1.44-0.04,2.48-0.12
		c1.04-0.08,1.77-0.15,2.2-0.22v1.7C232.54,40.93,231.82,41,230.95,41.06z M231.05,38.44c-0.56,0.47-1.4,0.71-2.5,0.71
		c-1.09,0-1.92-0.24-2.48-0.71c-0.56-0.48-0.85-1.02-0.85-1.63c0-0.6,0.28-1.14,0.85-1.61c0.56-0.48,1.39-0.71,2.48-0.71
		c1.12,0,1.96,0.24,2.51,0.71c0.55,0.47,0.83,1.01,0.83,1.62C231.9,37.43,231.62,37.97,231.05,38.44z M226.24,46.59v-3.41h2.07v1.66
		h7.49v1.75H226.24z M229.61,36.26c-0.21-0.19-0.56-0.29-1.05-0.29c-0.48,0-0.83,0.1-1.03,0.29c-0.21,0.2-0.31,0.38-0.31,0.55
		c0,0.15,0.11,0.33,0.33,0.52s0.56,0.29,1.03,0.29c0.48,0,0.83-0.1,1.04-0.29s0.32-0.36,0.32-0.52
		C229.93,36.64,229.82,36.46,229.61,36.26z M233.47,43.9v-0.87h-2.73v-1.58h2.73v-6.68h2.05v9.13H233.47z"/>
</g>
</svg>
